<mxfile host="65bd71144e">
    <diagram id="eoKHpXvbKu-9oEBP35xx" name="Page-1">
        <mxGraphModel dx="1417" dy="573" grid="1" gridSize="10" guides="1" tooltips="1" connect="1" arrows="1" fold="1" page="1" pageScale="1" pageWidth="850" pageHeight="1100" math="0" shadow="0">
            <root>
                <mxCell id="0"/>
                <mxCell id="1" parent="0"/>
                <mxCell id="3" value="" style="rounded=0;whiteSpace=wrap;html=1;" parent="1" vertex="1">
                    <mxGeometry x="80" y="40" width="680" height="440" as="geometry"/>
                </mxCell>
                <mxCell id="4" value="LOGIN" style="rounded=0;whiteSpace=wrap;html=1;" parent="1" vertex="1">
                    <mxGeometry x="80" y="40" width="680" height="50" as="geometry"/>
                </mxCell>
                <mxCell id="5" value="" style="whiteSpace=wrap;html=1;aspect=fixed;" parent="1" vertex="1">
                    <mxGeometry x="290" y="150" width="260" height="260" as="geometry"/>
                </mxCell>
                <mxCell id="6" value="USERNAME" style="rounded=0;whiteSpace=wrap;html=1;" parent="1" vertex="1">
                    <mxGeometry x="320" y="180" width="200" height="40" as="geometry"/>
                </mxCell>
                <mxCell id="7" value="PASSWORD" style="rounded=0;whiteSpace=wrap;html=1;" parent="1" vertex="1">
                    <mxGeometry x="320" y="240" width="200" height="40" as="geometry"/>
                </mxCell>
                <mxCell id="8" value="LOGIN" style="rounded=0;whiteSpace=wrap;html=1;" parent="1" vertex="1">
                    <mxGeometry x="367.5" y="300" width="105" height="30" as="geometry"/>
                </mxCell>
                <mxCell id="11" value="DON'T HAVE AN ACCOUNT? &lt;br&gt;SIGN UP" style="rounded=0;whiteSpace=wrap;html=1;" parent="1" vertex="1">
                    <mxGeometry x="320" y="350" width="200" height="40" as="geometry"/>
                </mxCell>
                <mxCell id="12" value="" style="rounded=0;whiteSpace=wrap;html=1;" parent="1" vertex="1">
                    <mxGeometry x="800" y="40" width="680" height="440" as="geometry"/>
                </mxCell>
                <mxCell id="13" value="SIGN UP" style="rounded=0;whiteSpace=wrap;html=1;" parent="1" vertex="1">
                    <mxGeometry x="800" y="40" width="680" height="50" as="geometry"/>
                </mxCell>
                <mxCell id="14" value="" style="whiteSpace=wrap;html=1;aspect=fixed;" parent="1" vertex="1">
                    <mxGeometry x="1010" y="140" width="260" height="260" as="geometry"/>
                </mxCell>
                <mxCell id="15" value="CREATE USERNAME" style="rounded=0;whiteSpace=wrap;html=1;" parent="1" vertex="1">
                    <mxGeometry x="1040" y="180" width="200" height="40" as="geometry"/>
                </mxCell>
                <mxCell id="16" value="CREATE PASSWORD" style="rounded=0;whiteSpace=wrap;html=1;" parent="1" vertex="1">
                    <mxGeometry x="1040" y="240" width="200" height="40" as="geometry"/>
                </mxCell>
                <mxCell id="17" value="SIGN UP" style="rounded=0;whiteSpace=wrap;html=1;" parent="1" vertex="1">
                    <mxGeometry x="1087.5" y="300" width="105" height="30" as="geometry"/>
                </mxCell>
                <mxCell id="19" value="" style="rounded=0;whiteSpace=wrap;html=1;" parent="1" vertex="1">
                    <mxGeometry x="80" y="520" width="680" height="440" as="geometry"/>
                </mxCell>
                <mxCell id="20" value="SOLAR TOPICS" style="rounded=0;whiteSpace=wrap;html=1;" parent="1" vertex="1">
                    <mxGeometry x="80" y="520" width="680" height="50" as="geometry"/>
                </mxCell>
                <mxCell id="21" value="LOGOUT" style="rounded=0;whiteSpace=wrap;html=1;" parent="1" vertex="1">
                    <mxGeometry x="660" y="530" width="80" height="30" as="geometry"/>
                </mxCell>
                <mxCell id="22" value="WELCOME TO YOUR SOLAR SYSTEM:&lt;br&gt;TEST YOUR KNOWLEDGE" style="rounded=0;whiteSpace=wrap;html=1;" parent="1" vertex="1">
                    <mxGeometry x="285" y="580" width="280" height="60" as="geometry"/>
                </mxCell>
                <mxCell id="23" value="IMAGE" style="ellipse;whiteSpace=wrap;html=1;aspect=fixed;" parent="1" vertex="1">
                    <mxGeometry x="180" y="720" width="80" height="80" as="geometry"/>
                </mxCell>
                <mxCell id="24" value="IMAGE" style="ellipse;whiteSpace=wrap;html=1;aspect=fixed;" parent="1" vertex="1">
                    <mxGeometry x="380" y="720" width="80" height="80" as="geometry"/>
                </mxCell>
                <mxCell id="25" value="IAMGE" style="ellipse;whiteSpace=wrap;html=1;aspect=fixed;" parent="1" vertex="1">
                    <mxGeometry x="580" y="720" width="80" height="80" as="geometry"/>
                </mxCell>
                <mxCell id="26" value="PLANETS" style="rounded=0;whiteSpace=wrap;html=1;" parent="1" vertex="1">
                    <mxGeometry x="160" y="810" width="120" height="30" as="geometry"/>
                </mxCell>
                <mxCell id="27" value="SUN / OTHER" style="rounded=0;whiteSpace=wrap;html=1;" parent="1" vertex="1">
                    <mxGeometry x="560" y="810" width="120" height="30" as="geometry"/>
                </mxCell>
                <mxCell id="28" value="MOONS" style="rounded=0;whiteSpace=wrap;html=1;" parent="1" vertex="1">
                    <mxGeometry x="360" y="810" width="120" height="30" as="geometry"/>
                </mxCell>
                <mxCell id="29" value="ABOUT" style="rounded=0;whiteSpace=wrap;html=1;" parent="1" vertex="1">
                    <mxGeometry x="90" y="50" width="80" height="30" as="geometry"/>
                </mxCell>
                <mxCell id="30" value="DESCRIBES THE WONDER OF OUR SOLAR SYSTEM&amp;nbsp;&lt;br&gt;AND HOW TO PLAY" style="rounded=0;whiteSpace=wrap;html=1;" parent="1" vertex="1">
                    <mxGeometry x="800" y="520" width="680" height="440" as="geometry"/>
                </mxCell>
                <mxCell id="31" value="ABOUT" style="rounded=0;whiteSpace=wrap;html=1;" parent="1" vertex="1">
                    <mxGeometry x="800" y="520" width="680" height="50" as="geometry"/>
                </mxCell>
                <mxCell id="32" value="HOME: TITLE SCREEN" style="rounded=0;whiteSpace=wrap;html=1;" parent="1" vertex="1">
                    <mxGeometry x="810" y="530" width="80" height="30" as="geometry"/>
                </mxCell>
                <mxCell id="33" value="" style="rounded=0;whiteSpace=wrap;html=1;" parent="1" vertex="1">
                    <mxGeometry x="80" y="1000" width="680" height="440" as="geometry"/>
                </mxCell>
                <mxCell id="34" value="" style="rounded=0;whiteSpace=wrap;html=1;" parent="1" vertex="1">
                    <mxGeometry x="800" y="1000" width="680" height="440" as="geometry"/>
                </mxCell>
                <mxCell id="35" value="" style="rounded=0;whiteSpace=wrap;html=1;" parent="1" vertex="1">
                    <mxGeometry x="1520" y="1000" width="680" height="440" as="geometry"/>
                </mxCell>
                <mxCell id="36" value="SUN/OTHER" style="rounded=0;whiteSpace=wrap;html=1;" parent="1" vertex="1">
                    <mxGeometry x="1520" y="1000" width="680" height="50" as="geometry"/>
                </mxCell>
                <mxCell id="37" value="MOONS" style="rounded=0;whiteSpace=wrap;html=1;" parent="1" vertex="1">
                    <mxGeometry x="800" y="1000" width="680" height="50" as="geometry"/>
                </mxCell>
                <mxCell id="38" value="PLANETS" style="rounded=0;whiteSpace=wrap;html=1;" parent="1" vertex="1">
                    <mxGeometry x="80" y="1000" width="680" height="50" as="geometry"/>
                </mxCell>
                <mxCell id="39" value="HOME: TITLE SCREEN" style="rounded=0;whiteSpace=wrap;html=1;" parent="1" vertex="1">
                    <mxGeometry x="1530" y="1010" width="80" height="30" as="geometry"/>
                </mxCell>
                <mxCell id="40" value="HOME: TITLE SCREEN" style="rounded=0;whiteSpace=wrap;html=1;" parent="1" vertex="1">
                    <mxGeometry x="810" y="1010" width="80" height="30" as="geometry"/>
                </mxCell>
                <mxCell id="41" value="HOME: TITLE SCREEN" style="rounded=0;whiteSpace=wrap;html=1;" parent="1" vertex="1">
                    <mxGeometry x="90" y="1010" width="80" height="30" as="geometry"/>
                </mxCell>
                <mxCell id="45" value="" style="whiteSpace=wrap;html=1;aspect=fixed;" parent="1" vertex="1">
                    <mxGeometry x="280" y="1107.5" width="280" height="280" as="geometry"/>
                </mxCell>
                <mxCell id="48" value="QUESTION" style="rounded=0;whiteSpace=wrap;html=1;" parent="1" vertex="1">
                    <mxGeometry x="310" y="1120" width="220" height="70" as="geometry"/>
                </mxCell>
                <mxCell id="51" value="" style="rounded=0;whiteSpace=wrap;html=1;" parent="1" vertex="1">
                    <mxGeometry x="310" y="1220" width="220" height="30" as="geometry"/>
                </mxCell>
                <mxCell id="52" value="" style="rounded=0;whiteSpace=wrap;html=1;" parent="1" vertex="1">
                    <mxGeometry x="310" y="1260" width="220" height="30" as="geometry"/>
                </mxCell>
                <mxCell id="53" value="" style="rounded=0;whiteSpace=wrap;html=1;" parent="1" vertex="1">
                    <mxGeometry x="310" y="1300" width="220" height="30" as="geometry"/>
                </mxCell>
                <mxCell id="54" value="" style="rounded=0;whiteSpace=wrap;html=1;" parent="1" vertex="1">
                    <mxGeometry x="310" y="1340" width="220" height="30" as="geometry"/>
                </mxCell>
                <mxCell id="56" value="" style="whiteSpace=wrap;html=1;aspect=fixed;" parent="1" vertex="1">
                    <mxGeometry x="1720" y="1100" width="280" height="280" as="geometry"/>
                </mxCell>
                <mxCell id="57" value="" style="whiteSpace=wrap;html=1;aspect=fixed;" parent="1" vertex="1">
                    <mxGeometry x="1000" y="1100" width="280" height="280" as="geometry"/>
                </mxCell>
                <mxCell id="58" value="QUESTION" style="rounded=0;whiteSpace=wrap;html=1;" parent="1" vertex="1">
                    <mxGeometry x="1750" y="1120" width="220" height="70" as="geometry"/>
                </mxCell>
                <mxCell id="59" value="QUESTION" style="rounded=0;whiteSpace=wrap;html=1;" parent="1" vertex="1">
                    <mxGeometry x="1030" y="1120" width="220" height="70" as="geometry"/>
                </mxCell>
                <mxCell id="60" value="" style="rounded=0;whiteSpace=wrap;html=1;" parent="1" vertex="1">
                    <mxGeometry x="1030" y="1220" width="220" height="30" as="geometry"/>
                </mxCell>
                <mxCell id="61" value="" style="rounded=0;whiteSpace=wrap;html=1;" parent="1" vertex="1">
                    <mxGeometry x="1030" y="1260" width="220" height="30" as="geometry"/>
                </mxCell>
                <mxCell id="62" value="" style="rounded=0;whiteSpace=wrap;html=1;" parent="1" vertex="1">
                    <mxGeometry x="1030" y="1300" width="220" height="30" as="geometry"/>
                </mxCell>
                <mxCell id="63" value="" style="rounded=0;whiteSpace=wrap;html=1;" parent="1" vertex="1">
                    <mxGeometry x="1030" y="1340" width="220" height="30" as="geometry"/>
                </mxCell>
                <mxCell id="64" value="" style="rounded=0;whiteSpace=wrap;html=1;" parent="1" vertex="1">
                    <mxGeometry x="1750" y="1220" width="220" height="30" as="geometry"/>
                </mxCell>
                <mxCell id="65" value="" style="rounded=0;whiteSpace=wrap;html=1;" parent="1" vertex="1">
                    <mxGeometry x="1750" y="1260" width="220" height="30" as="geometry"/>
                </mxCell>
                <mxCell id="66" value="" style="rounded=0;whiteSpace=wrap;html=1;" parent="1" vertex="1">
                    <mxGeometry x="1750" y="1300" width="220" height="30" as="geometry"/>
                </mxCell>
                <mxCell id="67" value="" style="rounded=0;whiteSpace=wrap;html=1;" parent="1" vertex="1">
                    <mxGeometry x="1750" y="1340" width="220" height="30" as="geometry"/>
                </mxCell>
                <mxCell id="68" value="NEXT" style="rounded=0;whiteSpace=wrap;html=1;" parent="1" vertex="1">
                    <mxGeometry x="380" y="1400" width="80" height="32.5" as="geometry"/>
                </mxCell>
                <mxCell id="69" value="NEXT" style="rounded=0;whiteSpace=wrap;html=1;" parent="1" vertex="1">
                    <mxGeometry x="1820" y="1400" width="80" height="32.5" as="geometry"/>
                </mxCell>
                <mxCell id="70" value="NEXT" style="rounded=0;whiteSpace=wrap;html=1;" parent="1" vertex="1">
                    <mxGeometry x="1100" y="1400" width="80" height="32.5" as="geometry"/>
                </mxCell>
                <mxCell id="71" value="score" style="rounded=0;whiteSpace=wrap;html=1;" parent="1" vertex="1">
                    <mxGeometry x="370" y="1060" width="100" height="30" as="geometry"/>
                </mxCell>
                <mxCell id="72" value="score" style="rounded=0;whiteSpace=wrap;html=1;" parent="1" vertex="1">
                    <mxGeometry x="1090" y="1060" width="100" height="30" as="geometry"/>
                </mxCell>
                <mxCell id="73" value="score" style="rounded=0;whiteSpace=wrap;html=1;" parent="1" vertex="1">
                    <mxGeometry x="1810" y="1060" width="100" height="30" as="geometry"/>
                </mxCell>
            </root>
        </mxGraphModel>
    </diagram>
</mxfile>